<svg xmlns="http://www.w3.org/2000/svg"  viewBox="0 0 64 64" width="64px" height="64px"><radialGradient id="CUa6R6Tfz_ODVNG3dm60Aa" cx="31.5" cy="32" r="30.276" gradientTransform="matrix(1 0 0 -1 0 64)" gradientUnits="userSpaceOnUse"><stop offset=".167" stop-color="#f6e6c1"/><stop offset=".73" stop-color="#faedd0"/><stop offset="1" stop-color="#fdf0d5"/></radialGradient><path fill="url(#CUa6R6Tfz_ODVNG3dm60Aa)" d="M57.158,37H58.5c1.466,0,2.637-1.262,2.487-2.758C60.857,32.941,59.665,32,58.357,32H51V22h5	c2.339,0,4.209-2.007,3.981-4.393C59.783,15.527,57.917,14,55.828,14H45.5c-0.828,0-1.5-0.672-1.5-1.5s0.672-1.5,1.5-1.5h0.328	c2.089,0,3.955-1.528,4.153-3.607C50.209,5.007,48.339,3,46,3H5.172c-1.95,0-3.905,1.561-4.141,3.497	c-0.29,2.38,1.512,4.411,3.812,4.5c1.573,0.061,2.998,1.148,3.144,2.716C8.152,15.499,6.751,17,5,17H3.698	c-1.727,0-3.482,1.378-3.675,3.095c-0.233,2.079,1.356,3.844,3.373,3.903c1.303,0.038,2.474,0.968,2.593,2.266	C6.125,27.751,4.959,29,3.5,29H2.643c-1.308,0-2.5,0.941-2.63,2.242C-0.137,32.739,1.034,34,2.5,34h1.393	c0.995,0,1.918,0.68,2.079,1.662C6.177,36.914,5.218,37.997,4.005,38c-1.376,0.004-2.718,0.561-3.391,1.761	C-1.12,42.856,1.073,46,4,46h1c1.657,0,3,1.343,3,3l0,0c0,1.657-1.343,3-3,3H4.693c-2.35,0-4.449,1.718-4.672,4.058	C-0.235,58.742,1.869,61,4.5,61h50.807c2.35,0,4.449-1.718,4.672-4.058C60.235,54.258,58.131,52,55.5,52H55c-1.105,0-2-0.895-2-2	l0,0c0-1.105,0.895-2,2-2h4.302c1.895,0,3.594-1.419,3.693-3.312C63.101,42.669,61.495,41,59.5,41h-2.454	c-1.22,0-2.18-1.091-1.971-2.342C55.239,37.676,56.163,37,57.158,37z"/><linearGradient id="CUa6R6Tfz_ODVNG3dm60Ab" x1="24.5" x2="24.5" y1="-54.25" y2="47.076" gradientTransform="matrix(1 0 0 -1 0 64)" gradientUnits="userSpaceOnUse"><stop offset="0" stop-color="#ff8769"/><stop offset=".214" stop-color="#ff887d"/><stop offset=".524" stop-color="#fd8896"/><stop offset=".793" stop-color="#fc89a5"/><stop offset=".989" stop-color="#fc89aa"/><stop offset="1" stop-color="#fc89aa"/></linearGradient><path fill="url(#CUa6R6Tfz_ODVNG3dm60Ab)" d="M41,30c0-12.15-5-22-16-22C15,8,8,17,8,30c0,7.241,2.537,13.235,6.308,17.13	C13.546,47.413,13,48.14,13,49v2h28C41,51,41,38.117,41,30z"/><linearGradient id="CUa6R6Tfz_ODVNG3dm60Ac" x1="49.499" x2="49.499" y1="-1.452" y2="36.706" gradientTransform="matrix(1 0 0 -1 0 64)" gradientUnits="userSpaceOnUse"><stop offset="0" stop-color="#51c0e6"/><stop offset="1" stop-color="#66dff3"/></linearGradient><path fill="url(#CUa6R6Tfz_ODVNG3dm60Ac)" d="M53.971,25.88c-0.846,2.088-1.447,4.213-1.962,6.352c-0.513,2.139-0.943,4.291-1.273,6.458	c-0.337,2.166-0.574,4.348-0.727,6.542c-0.152,2.195-0.217,4.402-0.038,6.648c0.113,1.414-0.942,2.653-2.356,2.766	s-2.653-0.942-2.766-2.356c-0.033-0.408,0.037-0.813,0.18-1.17c0.846-2.088,1.448-4.213,1.962-6.352	c0.513-2.139,0.943-4.291,1.273-6.458c0.337-2.166,0.574-4.348,0.727-6.542c0.152-2.195,0.217-4.402,0.038-6.648	c-0.113-1.414,0.942-2.653,2.356-2.765c1.414-0.113,2.652,0.942,2.765,2.356C54.183,25.119,54.114,25.524,53.971,25.88z"/><linearGradient id="CUa6R6Tfz_ODVNG3dm60Ad" x1="40.498" x2="40.498" y1="-1.452" y2="36.706" gradientTransform="matrix(1 0 0 -1 0 64)" gradientUnits="userSpaceOnUse"><stop offset="0" stop-color="#51c0e6"/><stop offset="1" stop-color="#66dff3"/></linearGradient><path fill="url(#CUa6R6Tfz_ODVNG3dm60Ad)" d="M41.993,25.308c-0.351,2.206-0.454,4.394-0.471,6.574c-0.015,2.181,0.054,4.355,0.224,6.521	c0.163,2.167,0.427,4.326,0.775,6.479c0.35,2.153,0.787,4.298,1.471,6.425c0.435,1.351-0.309,2.799-1.66,3.234	s-2.799-0.308-3.234-1.66c-0.127-0.394-0.151-0.808-0.092-1.19c0.351-2.206,0.455-4.394,0.471-6.575	c0.015-2.18-0.054-4.355-0.225-6.521c-0.163-2.167-0.427-4.326-0.776-6.479c-0.35-2.153-0.787-4.299-1.471-6.426	c-0.435-1.351,0.309-2.799,1.66-3.234c1.351-0.434,2.799,0.309,3.234,1.66C42.028,24.512,42.052,24.926,41.993,25.308z"/><linearGradient id="CUa6R6Tfz_ODVNG3dm60Ae" x1="39.5" x2="39.5" y1="26.128" y2="42.518" gradientTransform="matrix(1 0 0 -1 0 64)" gradientUnits="userSpaceOnUse"><stop offset="0" stop-color="#fdb265"/><stop offset=".612" stop-color="#ffd15d"/><stop offset="1" stop-color="#fde058"/></linearGradient><circle cx="39.5" cy="23.5" r="6.5" fill="url(#CUa6R6Tfz_ODVNG3dm60Ae)"/><linearGradient id="CUa6R6Tfz_ODVNG3dm60Af" x1="25.579" x2="25.579" y1="-4.537" y2="38.414" gradientTransform="matrix(1 0 0 -1 0 64)" gradientUnits="userSpaceOnUse"><stop offset="0" stop-color="#fd6b53"/><stop offset=".007" stop-color="#fd6b53"/><stop offset=".989" stop-color="#f96599"/><stop offset="1" stop-color="#f96599"/></linearGradient><path fill="url(#CUa6R6Tfz_ODVNG3dm60Af)" d="M25.75,49.715c0.27-0.257,0.685-0.708,1.006-1.107c0.342-0.413,0.665-0.848,0.97-1.294	c0.61-0.893,1.134-1.838,1.574-2.811c0.422-0.978,0.738-1.986,0.953-3.009c0.165-1.024,0.292-2.064,0.194-3.098	c-0.132-2.124-0.705-4.323-1.737-6.056c-0.519-0.871-1.175-1.625-1.922-2.174c-0.744-0.563-1.579-0.89-2.35-0.911	c-0.902-0.005-1.75,0.199-2.482,0.707c-0.745,0.479-1.364,1.255-1.821,2.145c-0.91,1.783-1.143,4.126-0.485,5.944	c0.326,0.912,0.901,1.596,1.646,1.943c0.371,0.18,0.825,0.247,1.275,0.265c0.448,0.002,0.83-0.089,1.148-0.246	c0.584-0.338,1.011-1.161,0.991-2.151c0.021-0.964-0.338-2.001-0.918-2.654l-0.047-0.053c-0.366-0.412-0.329-1.044,0.083-1.41	c0.4-0.355,1.008-0.329,1.378,0.049c1.102,1.129,1.616,2.55,1.691,4.017c0.039,0.735-0.048,1.505-0.355,2.258	c-0.294,0.747-0.829,1.474-1.564,1.958c-0.743,0.46-1.574,0.664-2.348,0.7c-0.765,0.019-1.549-0.061-2.308-0.363	c-1.532-0.589-2.661-1.915-3.217-3.27c-0.594-1.367-0.776-2.8-0.733-4.2c0.05-1.404,0.353-2.793,0.931-4.112	c0.586-1.305,1.455-2.575,2.715-3.507c1.232-0.962,2.841-1.468,4.374-1.52c1.685-0.047,3.238,0.54,4.487,1.375	c1.268,0.835,2.288,1.926,3.086,3.11c0.807,1.185,1.386,2.469,1.823,3.77c0.431,1.321,0.748,2.59,0.889,3.997	c0.195,1.397,0.115,2.815-0.047,4.205c-0.21,1.384-0.563,2.735-1.045,4.027c-0.498,1.283-1.104,2.514-1.813,3.677	c-0.356,0.582-0.733,1.148-1.142,1.699c-0.422,0.57-0.8,1.051-1.382,1.67c-0.946,1.007-2.529,1.056-3.536,0.11	C24.707,52.45,23.054,52.007,24,51c0.03-0.032,1.664-1.204,1.696-1.234L25.75,49.715z"/><linearGradient id="CUa6R6Tfz_ODVNG3dm60Ag" x1="52.5" x2="52.5" y1="26.128" y2="42.518" gradientTransform="matrix(1 0 0 -1 0 64)" gradientUnits="userSpaceOnUse"><stop offset="0" stop-color="#fdb265"/><stop offset=".612" stop-color="#ffd15d"/><stop offset="1" stop-color="#fde058"/></linearGradient><circle cx="52.5" cy="23.5" r="6.5" fill="url(#CUa6R6Tfz_ODVNG3dm60Ag)"/><linearGradient id="CUa6R6Tfz_ODVNG3dm60Ah" x1="30.5" x2="30.5" y1="-11.771" y2="13.283" gradientTransform="matrix(1 0 0 -1 0 64)" gradientUnits="userSpaceOnUse"><stop offset="0" stop-color="#51c0e6"/><stop offset="1" stop-color="#66dff3"/></linearGradient><path fill="url(#CUa6R6Tfz_ODVNG3dm60Ah)" d="M52,56.5H9V54c0-2.209,1.791-4,4-4h35c2.209,0,4,1.791,4,4V56.5z"/><linearGradient id="CUa6R6Tfz_ODVNG3dm60Ai" x1="30.5" x2="30.5" y1="9.587" y2="6.018" gradientTransform="matrix(1 0 0 -1 0 64)" gradientUnits="userSpaceOnUse"><stop offset="0" stop-color="#00d772"/><stop offset=".996" stop-color="#00b26e"/><stop offset="1" stop-color="#00b26e"/></linearGradient><path fill="url(#CUa6R6Tfz_ODVNG3dm60Ai)" d="M46.995,58c-1.641,0-2.504-0.313-3.266-0.59C43.1,57.181,42.602,57,41.49,57	s-1.608,0.181-2.238,0.41C38.491,57.687,37.628,58,35.989,58s-2.5-0.313-3.261-0.591C32.1,57.181,31.603,57,30.493,57	s-1.608,0.181-2.237,0.41C27.495,57.687,26.633,58,24.993,58c-1.639,0-2.501-0.313-3.262-0.591C21.103,57.181,20.605,57,19.495,57	c-1.109,0-1.606,0.181-2.235,0.409C16.499,57.687,15.637,58,13.998,58s-2.501-0.313-3.262-0.591C10.107,57.181,9.61,57,8.5,57	C7.672,57,7,56.328,7,55.5S7.672,54,8.5,54c1.639,0,2.501,0.313,3.262,0.591C12.391,54.819,12.888,55,13.998,55	s1.607-0.181,2.236-0.41c0.761-0.276,1.622-0.59,3.261-0.59s2.501,0.313,3.262,0.591C23.386,54.819,23.883,55,24.993,55	s1.608-0.181,2.237-0.41c0.761-0.276,1.623-0.59,3.263-0.59c1.639,0,2.5,0.313,3.261,0.591C34.383,54.819,34.88,55,35.989,55	c1.11,0,1.607-0.181,2.237-0.409C38.987,54.313,39.851,54,41.49,54s2.503,0.313,3.264,0.59c0.631,0.229,1.129,0.41,2.241,0.41	c1.111,0,1.609-0.181,2.239-0.41C49.996,54.313,50.859,54,52.5,54c0.828,0,1.5,0.672,1.5,1.5S53.328,57,52.5,57	c-1.112,0-1.61,0.181-2.241,0.41C49.498,57.687,48.635,58,46.995,58z"/><circle cx="39.5" cy="23.5" r="2.5" fill="#595959"/><circle cx="52.5" cy="23.5" r="2.5" fill="#595959"/><linearGradient id="CUa6R6Tfz_ODVNG3dm60Aj" x1="19.006" x2="19.006" y1="55.193" y2="43.715" gradientTransform="matrix(1 0 0 -1 0 64)" gradientUnits="userSpaceOnUse"><stop offset=".225" stop-color="#7c9eea"/><stop offset=".658" stop-color="#7780e3"/><stop offset="1" stop-color="#7363dc"/></linearGradient><path fill="url(#CUa6R6Tfz_ODVNG3dm60Aj)" d="M21.837,14.891c0.462,1.045-0.43,2.452-1.994,3.144c-1.563,0.692-3.205,0.406-3.668-0.639	c-0.462-1.045,0.43-2.452,1.994-3.144C19.733,13.561,21.375,13.847,21.837,14.891z"/><linearGradient id="CUa6R6Tfz_ODVNG3dm60Ak" x1="28.15" x2="28.15" y1="10.389" y2="24.136" gradientUnits="userSpaceOnUse"><stop offset=".225" stop-color="#7c9eea"/><stop offset=".658" stop-color="#7780e3"/><stop offset="1" stop-color="#7363dc"/></linearGradient><path fill="url(#CUa6R6Tfz_ODVNG3dm60Ak)" d="M31.05,19.914c-0.571,0.989-2.332,1.042-3.934,0.117c-1.601-0.925-2.437-2.476-1.865-3.465	c0.571-0.989,2.332-1.042,3.934-0.117C30.786,17.373,31.621,18.924,31.05,19.914z"/><linearGradient id="CUa6R6Tfz_ODVNG3dm60Al" x1="13.123" x2="13.123" y1="48.009" y2="35.755" gradientTransform="matrix(1 0 0 -1 0 64)" gradientUnits="userSpaceOnUse"><stop offset=".225" stop-color="#7c9eea"/><stop offset=".658" stop-color="#7780e3"/><stop offset="1" stop-color="#7363dc"/></linearGradient><path fill="url(#CUa6R6Tfz_ODVNG3dm60Al)" d="M13.934,20.982c1.067,0.284,1.569,1.88,1.121,3.564c-0.448,1.685-1.677,2.82-2.744,2.536	s-1.569-1.88-1.121-3.564C11.638,21.834,12.867,20.698,13.934,20.982z"/><linearGradient id="CUa6R6Tfz_ODVNG3dm60Am" x1="12.691" x2="12.691" y1="24.43" y2="36.508" gradientUnits="userSpaceOnUse"><stop offset=".225" stop-color="#7c9eea"/><stop offset=".658" stop-color="#7780e3"/><stop offset="1" stop-color="#7363dc"/></linearGradient><path fill="url(#CUa6R6Tfz_ODVNG3dm60Am)" d="M12.549,31.026c0.914-0.052,1.719,1.022,1.797,2.398s-0.6,2.534-1.514,2.586	s-1.719-1.022-1.797-2.398C10.957,32.235,11.634,31.078,12.549,31.026z"/><linearGradient id="CUa6R6Tfz_ODVNG3dm60An" x1="18.009" x2="18.009" y1="121.817" y2="14.983" gradientUnits="userSpaceOnUse"><stop offset="0" stop-color="#ff967c"/><stop offset=".214" stop-color="#ff978d"/><stop offset=".524" stop-color="#ff97a4"/><stop offset=".793" stop-color="#ff98b0"/><stop offset=".989" stop-color="#ff98b6"/><stop offset="1" stop-color="#ff98b6"/></linearGradient><path fill="url(#CUa6R6Tfz_ODVNG3dm60An)" d="M25,8C15.26,8,8.36,16.54,8.02,29h6.48c1.47,0,2.64-1.26,2.49-2.76	c-0.103-1.03-0.877-1.833-1.84-2.123c-0.025,0.142-0.056,0.286-0.094,0.43c-0.402,1.51-1.432,2.579-2.41,2.579	c-0.113,0-0.225-0.014-0.335-0.044c-1.067-0.283-1.569-1.88-1.121-3.564c0.401-1.51,1.431-2.58,2.409-2.58	c0.113,0,0.225,0.014,0.335,0.044c0.02,0.005,0.039,0.011,0.058,0.017h7.369c1.31,0,2.499-0.939,2.63-2.24	c0.136-1.372-0.83-2.543-2.121-2.733c-0.247,0.774-0.989,1.549-2.027,2.008c-0.577,0.256-1.165,0.378-1.7,0.378	c-0.914,0-1.675-0.357-1.967-1.016c-0.448-1.012,0.376-2.366,1.852-3.078C17.831,13.068,18.797,12,20,12h6	c1.209,0,2.179-1.08,1.969-2.34C27.84,8.84,27.18,8.24,26.38,8.061l0,0C25.93,8.019,25.47,8,25,8"/><linearGradient id="CUa6R6Tfz_ODVNG3dm60Ao" x1="18.961" x2="18.961" y1="8.818" y2="20.705" gradientUnits="userSpaceOnUse"><stop offset="0" stop-color="#8baced"/><stop offset=".225" stop-color="#8baced"/><stop offset=".658" stop-color="#888fe8"/><stop offset="1" stop-color="#8376e1"/></linearGradient><path fill="url(#CUa6R6Tfz_ODVNG3dm60Ao)" d="M18.027,14.319c-1.475,0.712-2.3,2.065-1.852,3.078c0.292,0.659,1.052,1.016,1.967,1.016	c0.535,0,1.123-0.122,1.7-0.378c1.038-0.459,1.78-1.234,2.027-2.008C21.749,16.009,21.625,16,21.5,16h-1.39	c-1,0-1.92-0.679-2.08-1.66C18.029,14.333,18.028,14.326,18.027,14.319"/><linearGradient id="CUa6R6Tfz_ODVNG3dm60Ap" x1="13.088" x2="13.088" y1="14.709" y2="29.734" gradientUnits="userSpaceOnUse"><stop offset="0" stop-color="#8baced"/><stop offset=".225" stop-color="#8baced"/><stop offset=".658" stop-color="#888fe8"/><stop offset="1" stop-color="#8376e1"/></linearGradient><path fill="url(#CUa6R6Tfz_ODVNG3dm60Ap)" d="M13.599,20.939c-0.978,0-2.008,1.069-2.409,2.58c-0.449,1.684,0.054,3.28,1.121,3.564	c0.11,0.03,0.222,0.044,0.335,0.044c0.978,0,2.008-1.069,2.41-2.579c0.038-0.145,0.07-0.288,0.094-0.43	C14.897,24.041,14.631,24,14.36,24H13.5c-0.83,0-1.5-0.67-1.5-1.5s0.67-1.5,1.5-1.5h0.492c-0.019-0.006-0.038-0.012-0.058-0.017	C13.823,20.953,13.711,20.939,13.599,20.939"/></svg>