<svg xmlns="http://www.w3.org/2000/svg"  viewBox="0 0 64 64" width="64px" height="64px"><radialGradient id="Bui43kx6hCDH7iO~zkUv~a" cx="28.495" cy="30.945" r="94.957" gradientTransform="matrix(1 0 0 -1 0 64)" gradientUnits="userSpaceOnUse"><stop offset="0" stop-color="#8deeff"/><stop offset=".193" stop-color="#a0f0ff"/><stop offset=".703" stop-color="#c8f7ff"/><stop offset="1" stop-color="#d6f9ff"/></radialGradient><path fill="url(#Bui43kx6hCDH7iO~zkUv~a)" d="M60,47c2.339,0,4.209-2.008,3.981-4.393C63.783,40.527,61.917,39,59.828,39H52.5	c-1.381,0-2.5-1.119-2.5-2.5l0,0c0-1.381,1.119-2.5,2.5-2.5h2.802c1.895,0,3.594-1.419,3.693-3.312C59.101,28.67,57.495,27,55.5,27	h-0.099C53.524,27.003,52,25.482,52,23.605v-0.088C52,21.567,53.567,20,55.5,20h4.389c1.451,0,2.781-0.981,3.054-2.406	C63.311,15.677,61.851,14,60,14l-9.059,0.001c-1.072,0-1.941-0.869-1.941-1.941v-0.05C49,10.9,49.9,10,51.01,10h0.775	c2.612,0,4.944-1.909,5.192-4.509C57.261,2.509,54.923,0,52,0H12.215C9.603,0,7.271,1.909,7.023,4.509C6.739,7.491,9.077,10,12,10	l1.052-0.003C14.127,9.994,15,10.865,15,11.94v0.05C15,13.1,14.1,14,12.99,14H7.172c-2.089,0-3.955,1.527-4.153,3.607	C2.791,19.992,4.661,22,7,22l1.497-0.047C9.874,21.935,11,23.046,11,24.423v0.064C11,25.881,9.881,27,8.5,27H3.111	c-1.451,0-2.781,0.981-3.054,2.406C-0.311,31.323,1.149,33,3,33h8.5c0.828,0,1.5,0.672,1.5,1.5l0,0c0,0.828-0.672,1.5-1.5,1.5H5.693	c-2.35,0-4.449,1.718-4.672,4.058C0.765,42.742,2.869,45,5.5,45H6c2.761,0,5,2.239,5,5l0,0c0,2.761-2.239,5-5,5H5.693	c-2.35,0-4.449,1.718-4.672,4.058C0.765,61.742,2.869,64,5.5,64H29h12h16.264c2.873,0,5.438-2.1,5.711-4.96	C63.287,55.76,60.716,53,57.5,53H57c-1.657,0-3-1.343-3-3l0,0c0-1.657,1.343-3,3-3H60z"/><path fill="#fff" d="M33,20.182C33,8.584,35.462,3,38.5,3S44,8.584,44,20.182S42,45,38.5,45S33,31.78,33,20.182z"/><path fill="#fff" d="M20,20.182C20,8.584,22.462,3,25.5,3S31,8.584,31,20.182S29,45,25.5,45S20,31.78,20,20.182z"/><ellipse cx="38.5" cy="23" fill="#595959" rx="2.5" ry="4"/><ellipse cx="25.5" cy="23" fill="#595959" rx="2.5" ry="4"/><linearGradient id="Bui43kx6hCDH7iO~zkUv~b" x1="32" x2="32" y1="2.821" y2="61.044" gradientTransform="matrix(1 0 0 -1 0 64)" gradientUnits="userSpaceOnUse"><stop offset="0" stop-color="#ff7d5c"/><stop offset=".214" stop-color="#ff7e72"/><stop offset=".524" stop-color="#fc7e8c"/><stop offset=".793" stop-color="#fa7f9c"/><stop offset=".989" stop-color="#fa7fa2"/><stop offset="1" stop-color="#fa7fa2"/></linearGradient><path fill="url(#Bui43kx6hCDH7iO~zkUv~b)" d="M47.864,53.186c0.293-0.256,0.58-0.521,0.859-0.797c0.916-0.919,1.432-2.32,1.237-3.767	c-0.313-2.317-2.282-3.919-4.4-3.577l-0.277,0.045c-0.72,0.116-1.42,0.231-2.112,0.344C40.473,42.022,36.375,40,32,40	c-4.371,0-8.467,2.019-11.164,5.427c-0.697-0.111-1.403-0.224-2.128-0.337l-0.306-0.048c-1.22-0.18-2.499,0.277-3.391,1.349	c-1.443,1.733-1.329,4.419,0.256,5.998c0.281,0.28,0.569,0.549,0.864,0.808c-0.453,0.942-0.86,1.871-1.19,2.752	C14.206,57.911,15.652,60,17.747,60c6.912,0,21.594,0,28.506,0c2.095,0,3.541-2.089,2.806-4.051	C48.728,55.065,48.318,54.132,47.864,53.186z"/><linearGradient id="Bui43kx6hCDH7iO~zkUv~c" x1="32" x2="32" y1="12.325" y2="24.079" gradientTransform="matrix(1 0 0 -1 0 64)" gradientUnits="userSpaceOnUse"><stop offset="0" stop-color="#fd6b53"/><stop offset=".007" stop-color="#fd6b53"/><stop offset=".989" stop-color="#f96599"/><stop offset="1" stop-color="#f96599"/></linearGradient><path fill="url(#Bui43kx6hCDH7iO~zkUv~c)" d="M33.871,44.319C34.229,45.059,33.799,46,33.104,46h-2.208c-0.695,0-1.125-0.941-0.767-1.681	l0.487-1.295c0.513-1.365,2.256-1.365,2.769,0L33.871,44.319z"/><linearGradient id="Bui43kx6hCDH7iO~zkUv~d" x1="20.502" x2="20.502" y1="3.129" y2="74.777" gradientTransform="matrix(1 0 0 -1 0 64)" gradientUnits="userSpaceOnUse"><stop offset="0" stop-color="#ff8769"/><stop offset=".214" stop-color="#ff887d"/><stop offset=".524" stop-color="#fd8896"/><stop offset=".793" stop-color="#fc89a5"/><stop offset=".989" stop-color="#fc89aa"/><stop offset="1" stop-color="#fc89aa"/></linearGradient><path fill="url(#Bui43kx6hCDH7iO~zkUv~d)" d="M24.97,58.33C24.81,59.31,23.89,60,22.34,60h-4.59c-0.32,0-0.63-0.05-0.92-0.14	c-0.28-0.09-0.55-0.22-0.79-0.39c-0.15-0.11-0.3-0.24-0.44-0.37c-0.07-0.07-0.13-0.15-0.19-0.22	c-0.236-0.292-0.416-0.629-0.529-0.991c-0.191-0.606-0.192-1.281,0.059-1.939c0.33-0.88,0.74-1.81,1.19-2.75	c-0.29-0.26-0.58-0.53-0.86-0.81c-0.9-0.9-1.32-2.15-1.26-3.39c0.05-0.94,0.38-1.87,1-2.61c0.86-1.03,2.07-1.49,3.25-1.37	C17.54,45.14,17,45.75,17,46.5c0,0.83,0.67,1.5,1.5,1.5H23l4,5h-4.5c-0.83,0-1.5,0.67-1.5,1.5s0.67,1.5,1.5,1.5H23	C24.21,56,25.17,57.07,24.97,58.33z"/><path fill="#fff" d="M45.342,52.027c-1.032,0.508-2.105,0.914-3.185,1.312l-1.649,0.496l-1.671,0.419	C36.596,54.764,34.297,54.987,32,55c-2.297-0.013-4.596-0.236-6.838-0.745l-1.671-0.419l-1.649-0.496	c-1.08-0.398-2.152-0.805-3.185-1.312c-1.255-0.618-1.797-2.188-1.209-3.507c0.506-1.137,1.685-1.717,2.805-1.46l0.098,0.023	c0.488,0.112,0.97,0.232,1.448,0.364l1.45,0.317l1.448,0.292l1.456,0.228c1.944,0.259,3.894,0.423,5.846,0.41	c1.953,0.013,3.902-0.151,5.846-0.41l1.456-0.228l1.448-0.292l1.45-0.317c0.477-0.133,0.96-0.253,1.448-0.364l0.097-0.022	c1.354-0.309,2.691,0.593,2.986,2.017C46.985,50.304,46.38,51.517,45.342,52.027z"/></svg>