<svg xmlns="http://www.w3.org/2000/svg"  viewBox="0 0 64 64" width="64px" height="64px"><radialGradient id="WZROiSAwIm0tEXa3dWY~Oa" cx="33.565" cy="32.716" r="77.861" gradientTransform="matrix(1 0 0 -1 0 64)" gradientUnits="userSpaceOnUse"><stop offset="0" stop-color="#8deeff"/><stop offset=".382" stop-color="#a0f0ff"/><stop offset=".86" stop-color="#c8f7ff"/><stop offset="1" stop-color="#d6f9ff"/></radialGradient><path fill="url(#WZROiSAwIm0tEXa3dWY~Oa)" d="M55.008,36.269C54.88,37.76,56.036,39,57.5,39h2c2,0,3.6,1.67,3.5,3.69	c-0.05,0.95-0.5,1.77-1.18,2.36C61.15,45.64,60.25,46,59.3,46l0,0c-2.485,0-4.3,2.015-4.3,4.5l0,0c0,2.485,2.015,4.5,4.5,4.5H60	c1.85,0,3.31,1.68,2.94,3.59c-0.27,1.43-1.6,2.41-3.05,2.41H7c-2.34,0-4.21-2.02-3.98-4.4C3.23,54.52,5.1,53,7.19,53H8	c0.55,0,1.05-0.22,1.41-0.59c0.479-0.467,0.712-1.166,0.525-1.905C9.705,49.597,8.827,49,7.89,49H3c-1.85,0-3.31-1.68-2.94-3.59	C0.33,43.98,1.66,43,3.11,43H7.5c1.464,0,2.62-1.24,2.492-2.731C9.878,38.956,8.678,38,7.36,38H7c-2.92,0-5.26-2.51-4.98-5.49	C2.27,29.91,4.6,28,7.21,28H7.5c1.464,0,2.62-1.24,2.492-2.731C9.878,23.956,8.678,23,7.36,23H3.5c-2,0-3.6-1.67-3.5-3.69	C0.1,17.42,1.8,16,3.7,16H6c1.85,0,3.31-1.68,2.94-3.59C8.67,10.98,7.34,10,5.89,10H5.5c-2,0-3.6-1.67-3.5-3.69	C2.1,4.42,3.8,3,5.7,3h50.8c2,0,3.6,1.67,3.49,3.69C59.9,8.58,58.2,10,56.3,10h-0.188c-1.057,0-2.015,0.77-2.104,1.823	c-0.053,0.619,0.173,1.189,0.583,1.587C54.95,13.78,55.45,14,56,14h2.12c2.96,0.07,5.29,2.72,4.84,5.79	c-0.18,1.23-0.84,2.29-1.76,3.03C60.27,23.56,59.24,24,58,24h-0.888c-1.057,0-2.015,0.77-2.104,1.823	c-0.053,0.619,0.173,1.189,0.583,1.587C55.95,27.78,56.45,28,57,28h3.89c1.45,0,2.78,0.98,3.05,2.41C64.31,32.32,62.85,34,61,34	h-3.36C56.322,34,55.122,34.956,55.008,36.269z"/><path fill="#fff" d="M51,46H13v7c0,1.105,0.895,2,2,2h34c1.105,0,2-0.895,2-2V46z"/><linearGradient id="WZROiSAwIm0tEXa3dWY~Ob" x1="32" x2="32" y1="-40.586" y2="73.931" gradientTransform="matrix(1 0 0 -1 0 64)" gradientUnits="userSpaceOnUse"><stop offset="0" stop-color="#fca853"/><stop offset=".612" stop-color="#fdcb49"/><stop offset="1" stop-color="#fddc44"/></linearGradient><path fill="url(#WZROiSAwIm0tEXa3dWY~Ob)" d="M12,45V9c0-1.105,0.895-2,2-2h36c1.105,0,2,0.895,2,2v36c0,1.105-0.895,2-2,2H14	C12.895,47,12,46.105,12,45z"/><linearGradient id="WZROiSAwIm0tEXa3dWY~Oc" x1="23" x2="23" y1="20.673" y2="-8.486" gradientTransform="matrix(1 0 0 -1 0 64)" gradientUnits="userSpaceOnUse"><stop offset="0" stop-color="#ddf7ff"/><stop offset="0" stop-color="#ddf7ff"/><stop offset=".173" stop-color="#d6f6ff"/><stop offset=".423" stop-color="#c3f2ff"/><stop offset=".72" stop-color="#a3ecfd"/><stop offset="1" stop-color="#80e5fd"/></linearGradient><path fill="url(#WZROiSAwIm0tEXa3dWY~Oc)" d="M17,47l4.72,4.473c0.742,0.703,1.819,0.703,2.561,0L29,47H17z"/><linearGradient id="WZROiSAwIm0tEXa3dWY~Od" x1="41" x2="41" y1="20.673" y2="-8.486" gradientTransform="matrix(1 0 0 -1 0 64)" gradientUnits="userSpaceOnUse"><stop offset="0" stop-color="#ddf7ff"/><stop offset="0" stop-color="#ddf7ff"/><stop offset=".173" stop-color="#d6f6ff"/><stop offset=".423" stop-color="#c3f2ff"/><stop offset=".72" stop-color="#a3ecfd"/><stop offset="1" stop-color="#80e5fd"/></linearGradient><path fill="url(#WZROiSAwIm0tEXa3dWY~Od)" d="M35,47l4.72,4.473c0.742,0.703,1.819,0.703,2.561,0L47,47H35z"/><linearGradient id="WZROiSAwIm0tEXa3dWY~Oe" x1="32" x2="32" y1="7.875" y2="17.346" gradientTransform="matrix(1 0 0 -1 0 64)" gradientUnits="userSpaceOnUse"><stop offset="0" stop-color="#fc724e"/><stop offset=".214" stop-color="#fc7366"/><stop offset=".524" stop-color="#fa7381"/><stop offset=".793" stop-color="#f97492"/><stop offset=".989" stop-color="#f97499"/></linearGradient><path fill="url(#WZROiSAwIm0tEXa3dWY~Oe)" d="M32,48l-2.776,4.518c-0.334,0.544-0.29,1.305,0.104,1.786l1.88,2.295	c0.437,0.534,1.146,0.534,1.583,0l1.88-2.295c0.394-0.481,0.438-1.242,0.104-1.786L32,48z"/><linearGradient id="WZROiSAwIm0tEXa3dWY~Of" x1="32.019" x2="31.99" y1="14" y2="18.546" gradientTransform="matrix(1 0 0 -1 0 64)" gradientUnits="userSpaceOnUse"><stop offset="0" stop-color="#fc724e"/><stop offset=".214" stop-color="#fc7366"/><stop offset=".524" stop-color="#fa7381"/><stop offset=".793" stop-color="#f97492"/><stop offset=".989" stop-color="#f97499"/></linearGradient><path fill="url(#WZROiSAwIm0tEXa3dWY~Of)" d="M32,50L32,50c-1.194,0-2.255-0.764-2.632-1.897L29,47h6l-0.368,1.103	C34.255,49.236,33.194,50,32,50z"/><path fill="#fff" d="M47,22c0,1.389-0.409,2.682-1.109,3.769c-2.477,0.011-4.555,1.357-5.169,3.198	C40.485,28.989,40.237,29,40,29c-3.866,0-7-3.134-7-7s3.134-7,7-7S47,18.134,47,22z"/><path fill="#fff" d="M31,22.5c0,3.59-2.91,6.5-6.5,6.5c-0.22,0-0.45-0.01-0.67-0.03c-0.57-1.71-2.5-2.96-4.8-2.97	C18.38,24.99,18,23.79,18,22.5c0-3.59,2.91-6.5,6.5-6.5S31,18.91,31,22.5z"/><linearGradient id="WZROiSAwIm0tEXa3dWY~Og" x1="40" x2="40" y1="55.82" y2="41.467" gradientTransform="matrix(1 0 0 -1 0 64)" gradientUnits="userSpaceOnUse"><stop offset="0" stop-color="#ddf7ff"/><stop offset="0" stop-color="#ddf7ff"/><stop offset=".173" stop-color="#d6f6ff"/><stop offset=".423" stop-color="#c3f2ff"/><stop offset=".72" stop-color="#a3ecfd"/><stop offset="1" stop-color="#80e5fd"/></linearGradient><circle cx="40" cy="22" r="3.769" fill="url(#WZROiSAwIm0tEXa3dWY~Og)"/><linearGradient id="WZROiSAwIm0tEXa3dWY~Oh" x1="24.5" x2="24.5" y1="54.333" y2="41.005" gradientTransform="matrix(1 0 0 -1 0 64)" gradientUnits="userSpaceOnUse"><stop offset="0" stop-color="#ddf7ff"/><stop offset="0" stop-color="#ddf7ff"/><stop offset=".173" stop-color="#d6f6ff"/><stop offset=".423" stop-color="#c3f2ff"/><stop offset=".72" stop-color="#a3ecfd"/><stop offset="1" stop-color="#80e5fd"/></linearGradient><circle cx="24.5" cy="22.5" r="3.5" fill="url(#WZROiSAwIm0tEXa3dWY~Oh)"/><circle cx="40" cy="22" r="1.615" fill="#595959"/><circle cx="24.5" cy="22.5" r="1.5" fill="#595959"/><linearGradient id="WZROiSAwIm0tEXa3dWY~Oi" x1="32" x2="32" y1="34.115" y2="44.536" gradientTransform="matrix(1 0 0 -1 0 64)" gradientUnits="userSpaceOnUse"><stop offset="0" stop-color="#fca853"/><stop offset=".612" stop-color="#fdcb49"/><stop offset="1" stop-color="#fddc44"/></linearGradient><circle cx="32" cy="27" r="3" fill="url(#WZROiSAwIm0tEXa3dWY~Oi)"/><path fill="#fff" d="M37,39h-3c-0.552,0-1-0.448-1-1v-3h5v3C38,38.552,37.552,39,37,39z"/><path fill="#fff" d="M30,39h-3c-0.552,0-1-0.448-1-1v-3h5v3C31,38.552,30.552,39,30,39z"/><path fill="#595959" d="M32,36.3c-4.924,0-9.849-1.859-13.686-5.578c-0.396-0.384-0.407-1.018-0.022-1.414	s1.018-0.406,1.414-0.021c6.895,6.68,17.696,6.68,24.588,0c0.396-0.384,1.031-0.376,1.414,0.021c0.385,0.396,0.375,1.03-0.021,1.414	C41.849,34.44,36.925,36.3,32,36.3z"/><linearGradient id="WZROiSAwIm0tEXa3dWY~Oj" x1="18.898" x2="17.758" y1="22.884" y2="57.085" gradientTransform="matrix(1 0 0 -1 0 64)" gradientUnits="userSpaceOnUse"><stop offset="0" stop-color="#fdb265"/><stop offset=".612" stop-color="#ffd15d"/><stop offset="1" stop-color="#fde058"/></linearGradient><path fill="url(#WZROiSAwIm0tEXa3dWY~Oj)" d="M23.99,9.24c0.15,1.5-1.02,2.76-2.49,2.76h-6c-0.83,0-1.5,0.67-1.5,1.5s0.67,1.5,1.5,1.5H16	c1.21,0,2.18,1.08,1.97,2.34C17.81,18.32,16.89,19,15.89,19H12V9c0-1.1,0.9-2,2-2h7.36C22.66,7,23.86,7.94,23.99,9.24z"/><linearGradient id="WZROiSAwIm0tEXa3dWY~Ok" x1="29.542" x2="28.402" y1="23.239" y2="57.44" gradientTransform="matrix(1 0 0 -1 0 64)" gradientUnits="userSpaceOnUse"><stop offset="0" stop-color="#fdb265"/><stop offset=".612" stop-color="#ffd15d"/><stop offset="1" stop-color="#fde058"/></linearGradient><path fill="url(#WZROiSAwIm0tEXa3dWY~Ok)" d="M28.5,12L28.5,12c-1.381,0-2.5-1.119-2.5-2.5l0,0C26,8.119,27.119,7,28.5,7l0,0	C29.881,7,31,8.119,31,9.5l0,0C31,10.881,29.881,12,28.5,12z"/><linearGradient id="WZROiSAwIm0tEXa3dWY~Ol" x1="46" x2="46" y1="-5.209" y2="72.638" gradientTransform="matrix(1 0 0 -1 0 64)" gradientUnits="userSpaceOnUse"><stop offset="0" stop-color="#fca853"/><stop offset=".612" stop-color="#fdcb49"/><stop offset="1" stop-color="#fddc44"/></linearGradient><path fill="url(#WZROiSAwIm0tEXa3dWY~Ol)" d="M52,35v10c0,1.1-0.9,2-2,2h-7.356c-1.308,0-2.5-0.94-2.631-2.241	C39.862,43.263,41.035,42,42.5,42h4c0.828,0,1.5-0.672,1.5-1.5l0,0c0-0.828-0.672-1.5-1.5-1.5h-0.379	c-0.997,0-1.927-0.675-2.093-1.659C43.819,36.092,44.788,35,46,35H52z"/><linearGradient id="WZROiSAwIm0tEXa3dWY~Om" x1="35.5" x2="35.5" y1="-4.732" y2="73.115" gradientTransform="matrix(1 0 0 -1 0 64)" gradientUnits="userSpaceOnUse"><stop offset="0" stop-color="#fca853"/><stop offset=".612" stop-color="#fdcb49"/><stop offset="1" stop-color="#fddc44"/></linearGradient><path fill="url(#WZROiSAwIm0tEXa3dWY~Om)" d="M35.5,47L35.5,47c1.381,0,2.5-1.119,2.5-2.5l0,0c0-1.381-1.119-2.5-2.5-2.5l0,0	c-1.381,0-2.5,1.119-2.5,2.5l0,0C33,45.881,34.119,47,35.5,47z"/></svg>