<svg xmlns="http://www.w3.org/2000/svg"  viewBox="0 0 64 64" width="64px" height="64px"><radialGradient id="7JwQRwO~5xem39IDSf_I6a" cx="32" cy="31.5" r="37.227" gradientTransform="matrix(1 0 0 -1 0 64)" gradientUnits="userSpaceOnUse"><stop offset="0" stop-color="#8deeff"/><stop offset=".193" stop-color="#a0f0ff"/><stop offset=".703" stop-color="#c8f7ff"/><stop offset="1" stop-color="#d6f9ff"/></radialGradient><path fill="url(#7JwQRwO~5xem39IDSf_I6a)" d="M63.979,58.058C64.235,60.742,62.131,63,59.5,63h-55c-1.995,0-3.601-1.67-3.495-3.688	C1.104,57.419,2.803,56,4.698,56H6.5c1.933,0,3.5-1.567,3.5-3.5l0,0c0-1.933-1.567-3.5-3.5-3.5l0,0	c-2.631,0-4.735-2.258-4.479-4.942C2.244,41.718,4.343,40,6.693,40H7.5c1.933,0,3.5-1.567,3.5-3.5l0,0c0-1.933-1.567-3.5-3.5-3.5H4	c-2.339,0-4.209-2.008-3.981-4.393C0.217,26.527,2.083,25,4.172,25H9.5c1.381,0,2.5-1.119,2.5-2.5l0,0c0-1.381-1.119-2.5-2.5-2.5H8	c-1.851,0-3.311-1.677-2.943-3.594C5.331,14.981,6.661,14,8.111,14H16c1.105,0,2-0.895,2-2l0,0c0-1.105-0.895-2-2-2h-1	c-2.339,0-4.209-2.008-3.981-4.393C11.217,3.527,13.083,2,15.172,2H34h2h22c1.851,0,3.311,1.677,2.943,3.594	C60.67,7.019,59.34,8,57.889,8H50.5C49.119,8,48,9.119,48,10.5l0,0c0,1.381,1.119,2.5,2.5,2.5H58c2.339,0,4.209,2.007,3.981,4.393	C61.783,19.473,59.917,21,57.828,21H57c-1.657,0-3,1.343-3,3l0,0c0,1.657,1.343,3,3,3h0.5c1.995,0,3.601,1.67,3.495,3.688	C60.896,32.581,59.197,34,57.302,34H57c-1.657,0-3,1.343-3,3l0,0c0,1.657,1.343,3,3,3h2.5c2.631,0,4.735,2.258,4.479,4.942	C63.756,47.282,61.657,49,59.307,49H58.5c-1.381,0-2.5,1.119-2.5,2.5l0,0c0,1.381,1.119,2.5,2.5,2.5h0.807	C61.657,54,63.756,55.718,63.979,58.058z M8,6L8,6c0-2.209-1.791-4-4-4l0,0C1.791,2,0,3.791,0,6l0,0c0,2.209,1.791,4,4,4l0,0	C6.209,10,8,8.209,8,6z"/><linearGradient id="7JwQRwO~5xem39IDSf_I6b" x1="32" x2="32" y1="-58.349" y2="49.588" gradientTransform="matrix(1 0 0 -1 0 64)" gradientUnits="userSpaceOnUse"><stop offset="0" stop-color="#ff7d5c"/><stop offset=".214" stop-color="#ff7e72"/><stop offset=".524" stop-color="#fc7e8c"/><stop offset=".793" stop-color="#fa7f9c"/><stop offset=".989" stop-color="#fa7fa2"/><stop offset="1" stop-color="#fa7fa2"/></linearGradient><path fill="url(#7JwQRwO~5xem39IDSf_I6b)" d="M49.06,59H14.94c-1.23,0-2.15-1.121-1.9-2.314l8.57-38.456l1.04-4.678	C23.56,9.149,27.47,6,32,6c0.94,0,1.86,0.132,2.73,0.398c3.3,0.968,5.9,3.669,6.62,7.155l9.61,43.134	C51.21,57.879,50.29,59,49.06,59z"/><ellipse cx="39" cy="38" fill="#fff" rx="6" ry="8"/><ellipse cx="25" cy="38" fill="#fff" rx="6" ry="8"/><ellipse cx="38" cy="38.5" fill="#595959" rx="2" ry="2.5"/><ellipse cx="26" cy="38.5" fill="#595959" rx="2" ry="2.5"/><path fill="#595959" d="M23.499,26c-0.672,0-1.284-0.455-1.454-1.136c-0.201-0.804,0.287-1.618,1.091-1.819l4-1	c0.806-0.199,1.619,0.289,1.819,1.091c0.201,0.804-0.287,1.618-1.091,1.819l-4,1C23.742,25.985,23.619,26,23.499,26z"/><path fill="#595959" d="M40.501,26c-0.12,0-0.242-0.015-0.365-0.045l-4-1c-0.804-0.201-1.292-1.016-1.091-1.819	c0.2-0.802,1.007-1.29,1.819-1.091l4,1c0.804,0.201,1.292,1.016,1.091,1.819C41.785,25.545,41.173,26,40.501,26z"/><linearGradient id="7JwQRwO~5xem39IDSf_I6c" x1="28.332" x2="28.332" y1="10.402" y2="55.552" gradientTransform="matrix(1 0 0 -1 0 64)" gradientUnits="userSpaceOnUse"><stop offset="0" stop-color="#ff8769"/><stop offset=".214" stop-color="#ff887d"/><stop offset=".524" stop-color="#fd8896"/><stop offset=".793" stop-color="#fc89a5"/><stop offset=".989" stop-color="#fc89aa"/><stop offset="1" stop-color="#fc89aa"/></linearGradient><path fill="url(#7JwQRwO~5xem39IDSf_I6c)" d="M34.99,7.24C35.14,8.74,33.97,10,32.5,10H30c-0.55,0-1.05,0.22-1.41,0.59	C28.22,10.95,28,11.45,28,12c0,1.1,0.9,2,2,2c1.21,0,2.18,1.08,1.97,2.34C31.81,17.32,30.89,18,29.89,18h-8.229l0.989-4.59	C23.56,9.09,27.47,6,32,6c0.94,0,1.86,0.137,2.73,0.398C34.87,6.657,34.96,6.93,34.99,7.24z"/><path fill="#595959" d="M45.163,49.715C44.731,48.673,43.882,48,43,48c-0.553,0-1.027,0.444-1.027,0.996	c0,0.326,0.156,0.6,0.389,0.781c-6.504,3.492-14.242,3.488-20.743-0.011C21.845,49.583,22,49.315,22,49c0-0.553-0.447-1-1-1	c-0.882,0-1.731,0.673-2.163,1.715c-0.458,1.106-0.283,2.253,0.456,2.992C19.488,52.902,19.744,53,20,53s0.512-0.098,0.707-0.293	c0.279-0.279,0.35-0.68,0.23-1.03c3.478,1.817,7.27,2.725,11.063,2.725s7.585-0.909,11.063-2.725c-0.12,0.35-0.049,0.751,0.23,1.03	C43.488,52.902,43.744,53,44,53s0.512-0.098,0.707-0.293C45.446,51.968,45.621,50.821,45.163,49.715z"/></svg>