<svg xmlns="http://www.w3.org/2000/svg"  viewBox="0 0 64 64" width="64px" height="64px"><radialGradient id="5bS7YTf8f3fJCkEEvfBLia" cx="31.5" cy="32" r="31.751" gradientTransform="matrix(1 0 0 -1 0 64)" gradientUnits="userSpaceOnUse"><stop offset="0" stop-color="#8deeff"/><stop offset=".193" stop-color="#a0f0ff"/><stop offset=".703" stop-color="#c8f7ff"/><stop offset="1" stop-color="#d6f9ff"/></radialGradient><path fill="url(#5bS7YTf8f3fJCkEEvfBLia)" d="M58.307,43h-3.196c-1.451,0-2.781-0.981-3.054-2.406C51.689,38.677,53.149,37,55,37h1.828	c2.089,0,3.955-1.528,4.153-3.607C61.209,31.007,59.339,29,57,29h-3.307c-2.35,0-4.449-1.718-4.672-4.058	C48.765,22.258,50.869,20,53.5,20h4.802c1.895,0,3.594-1.419,3.693-3.312C62.1,14.669,60.495,13,58.5,13h-3.858	c-1.308,0-2.499-0.941-2.629-2.242C51.863,9.261,53.034,8,54.5,8h0.328c2.089,0,3.955-1.528,4.153-3.607C59.209,2.007,57.339,0,55,0	H40h-1H9.172C7.083,0,5.217,1.527,5.019,3.607C4.791,5.993,6.661,8,9,8h0.357c1.308,0,2.499,0.941,2.63,2.242	C12.137,11.738,10.966,13,9.5,13H7.693c-2.35,0-4.449,1.719-4.672,4.058C2.765,19.742,4.869,22,7.5,22h0.389	c1.451,0,2.781,0.981,3.054,2.406C11.311,26.323,9.851,28,8,28H3.698c-1.895,0-3.594,1.419-3.693,3.312C-0.1,33.331,1.505,35,3.5,35	h6.328c2.089,0,3.955,1.527,4.153,3.607C14.209,40.992,12.339,43,10,43H7.215c-2.612,0-4.944,1.909-5.191,4.509	C1.739,50.491,4.077,53,7,53h4c1.105,0,2,0.895,2,2l0,0c0,1.105-0.895,2-2,2h-0.408c-1.67,0-3.187,1.133-3.518,2.77	C6.619,62.022,8.328,64,10.5,64h42.802c1.895,0,3.594-1.419,3.693-3.312C57.101,58.67,55.495,57,53.5,57l0,0	c-1.381,0-2.5-1.119-2.5-2.5l0,0c0-1.381,1.119-2.5,2.5-2.5h5c2.631,0,4.735-2.258,4.479-4.942C62.756,44.719,60.657,43,58.307,43z"/><linearGradient id="5bS7YTf8f3fJCkEEvfBLib" x1="42.734" x2="42.734" y1="58.953" y2="41.41" gradientTransform="matrix(1 0 0 -1 0 64)" gradientUnits="userSpaceOnUse"><stop offset="0" stop-color="#00de8b"/><stop offset=".478" stop-color="#00d189"/><stop offset="1" stop-color="#00be86"/></linearGradient><path fill="url(#5bS7YTf8f3fJCkEEvfBLib)" d="M35.02,24.717c0.13-1.022,0.232-1.962,0.436-3.045c0.181-1.078,0.453-2.14,0.792-3.177	c0.666-2.077,1.577-4.073,2.73-5.912c2.299-3.683,5.509-6.765,9.251-8.869c0.722-0.406,1.637-0.15,2.043,0.572	c0.39,0.693,0.169,1.564-0.487,1.992l-0.013,0.008c-3.185,2.066-5.839,4.885-7.675,8.148c-0.919,1.631-1.615,3.378-2.098,5.173	c-0.123,0.448-0.237,0.899-0.319,1.356c-0.1,0.453-0.182,0.91-0.247,1.369l-0.452,2.951c-0.167,1.092-1.188,1.841-2.28,1.674	c-1.074-0.165-1.817-1.155-1.682-2.226L35.02,24.717z"/><path fill="#595959" d="M46.5,10c-0.384,0-0.768-0.146-1.061-0.439l-2-2c-0.586-0.586-0.586-1.535,0-2.121	s1.535-0.586,2.121,0l2,2c0.586,0.586,0.586,1.535,0,2.121C47.268,9.854,46.884,10,46.5,10z"/><path fill="#595959" d="M43.289,13.86c-0.286,0-0.575-0.081-0.831-0.252l-2.79-1.86c-0.689-0.46-0.876-1.391-0.416-2.08	s1.391-0.876,2.08-0.416l2.79,1.86c0.689,0.46,0.876,1.391,0.416,2.08C44.249,13.626,43.773,13.86,43.289,13.86z"/><path fill="#595959" d="M40.644,18.569c-0.226,0-0.454-0.051-0.669-0.158l-3.145-1.569c-0.741-0.369-1.042-1.271-0.672-2.012	c0.37-0.742,1.271-1.042,2.012-0.672l3.145,1.569c0.741,0.369,1.042,1.271,0.672,2.012C41.724,18.266,41.194,18.569,40.644,18.569z"/><linearGradient id="5bS7YTf8f3fJCkEEvfBLic" x1="21.267" x2="21.267" y1="58.953" y2="41.41" gradientTransform="matrix(1 0 0 -1 0 64)" gradientUnits="userSpaceOnUse"><stop offset="0" stop-color="#00de8b"/><stop offset=".478" stop-color="#00d189"/><stop offset="1" stop-color="#00be86"/></linearGradient><path fill="url(#5bS7YTf8f3fJCkEEvfBLic)" d="M25.02,25.283l-0.452-2.951c-0.065-0.459-0.147-0.916-0.247-1.369	c-0.082-0.458-0.196-0.908-0.319-1.356c-0.483-1.794-1.18-3.542-2.098-5.173c-1.837-3.262-4.49-6.082-7.675-8.148L14.22,6.281	c-0.695-0.451-0.894-1.38-0.443-2.075c0.433-0.667,1.31-0.875,1.995-0.491c3.741,2.104,6.952,5.186,9.251,8.869	c1.153,1.84,2.064,3.835,2.73,5.912c0.338,1.037,0.61,2.099,0.792,3.177c0.204,1.082,0.306,2.022,0.436,3.045l0.001,0.011	c0.139,1.096-0.636,2.097-1.732,2.236C26.171,27.101,25.185,26.35,25.02,25.283z"/><path fill="#595959" d="M17.5,10c-0.384,0-0.768-0.146-1.061-0.439c-0.586-0.586-0.586-1.535,0-2.121l2-2	c0.586-0.586,1.535-0.586,2.121,0s0.586,1.535,0,2.121l-2,2C18.268,9.854,17.884,10,17.5,10z"/><path fill="#595959" d="M20.711,13.86c-0.484,0-0.96-0.234-1.249-0.668c-0.46-0.689-0.273-1.62,0.416-2.08l2.79-1.86	c0.688-0.461,1.62-0.274,2.08,0.416c0.46,0.689,0.273,1.62-0.416,2.08l-2.79,1.86C21.286,13.779,20.997,13.86,20.711,13.86z"/><path fill="#595959" d="M23.356,18.569c-0.551,0-1.08-0.304-1.343-0.83c-0.37-0.741-0.069-1.643,0.672-2.012l3.145-1.569	c0.739-0.37,1.642-0.07,2.012,0.672c0.37,0.741,0.069,1.643-0.672,2.012l-3.145,1.569C23.811,18.519,23.582,18.569,23.356,18.569z"/><linearGradient id="5bS7YTf8f3fJCkEEvfBLid" x1="32" x2="32" y1="45.096" y2="-8.037" gradientTransform="matrix(1 0 0 -1 0 64)" gradientUnits="userSpaceOnUse"><stop offset="0" stop-color="#00de8b"/><stop offset=".478" stop-color="#00d189"/><stop offset="1" stop-color="#00be86"/></linearGradient><path fill="url(#5bS7YTf8f3fJCkEEvfBLid)" d="M42,61H22c-1.105,0-2-0.895-2-2V31c0-6.627,5.373-12,12-12l0,0c6.627,0,12,5.373,12,12v28	C44,60.105,43.105,61,42,61z"/><linearGradient id="5bS7YTf8f3fJCkEEvfBLie" x1="32" x2="32" y1="1.569" y2="42.538" gradientTransform="matrix(1 0 0 -1 0 64)" gradientUnits="userSpaceOnUse"><stop offset="0" stop-color="#fdb265"/><stop offset=".612" stop-color="#ffd15d"/><stop offset="1" stop-color="#fde058"/></linearGradient><ellipse cx="32" cy="38.5" fill="url(#5bS7YTf8f3fJCkEEvfBLie)" rx="7" ry="8.5"/><linearGradient id="5bS7YTf8f3fJCkEEvfBLif" x1="32" x2="32" y1="18.275" y2="31.935" gradientTransform="matrix(1 0 0 -1 0 64)" gradientUnits="userSpaceOnUse"><stop offset="0" stop-color="#fc724e"/><stop offset=".214" stop-color="#fc7366"/><stop offset=".524" stop-color="#fa7381"/><stop offset=".793" stop-color="#f97492"/><stop offset=".989" stop-color="#f97499"/></linearGradient><ellipse cx="32" cy="38.5" fill="url(#5bS7YTf8f3fJCkEEvfBLif)" rx="3" ry="4.5"/><linearGradient id="5bS7YTf8f3fJCkEEvfBLig" x1="31.935" x2="33.05" y1="16.722" y2="-32.035" gradientTransform="matrix(1 0 0 -1 0 64)" gradientUnits="userSpaceOnUse"><stop offset="0" stop-color="#fd6b53"/><stop offset=".007" stop-color="#fd6b53"/><stop offset=".989" stop-color="#f96599"/><stop offset="1" stop-color="#f96599"/></linearGradient><path fill="url(#5bS7YTf8f3fJCkEEvfBLig)" d="M36.922,49h-9.843C26.483,49,26,49.479,26,50.07c0,3.821,2.691,6.93,6,6.93s6-3.109,6-6.93	C38,49.479,37.517,49,36.922,49z"/><path fill="#fff" d="M38,50.07c0,0.67-0.08,1.32-0.24,1.93H26.24C26.08,51.39,26,50.74,26,50.07	c0-0.59,0.48-1.07,1.08-1.07h9.84C37.52,49,38,49.48,38,50.07z"/><linearGradient id="5bS7YTf8f3fJCkEEvfBLih" x1="27" x2="27" y1="27.888" y2="14.734" gradientTransform="matrix(1 0 0 -1 0 64)" gradientUnits="userSpaceOnUse"><stop offset="0" stop-color="#00e49f"/><stop offset=".478" stop-color="#00da9e"/><stop offset="1" stop-color="#00ca9b"/></linearGradient><path fill="url(#5bS7YTf8f3fJCkEEvfBLih)" d="M32,19c-6.627,0-12,5.373-12,12h5c1.1,0,2-0.9,2-2c0-0.897-0.6-1.663-1.418-1.913	C25.398,27.03,26,27,26,27l5.599-4H32c1.1,0,2-0.9,2-2c0-1.031-0.79-1.891-1.8-1.99L32,19L32,19"/><linearGradient id="5bS7YTf8f3fJCkEEvfBLii" x1="32" x2="32" y1="-6.745" y2="8.618" gradientTransform="matrix(1 0 0 -1 0 64)" gradientUnits="userSpaceOnUse"><stop offset="0" stop-color="#ff7d5c"/><stop offset=".214" stop-color="#ff7e72"/><stop offset=".524" stop-color="#fc7e8c"/><stop offset=".793" stop-color="#fa7f9c"/><stop offset=".989" stop-color="#fa7fa2"/><stop offset="1" stop-color="#fa7fa2"/></linearGradient><path fill="url(#5bS7YTf8f3fJCkEEvfBLii)" d="M35.56,55.64C34.57,56.5,33.34,57,32,57s-2.57-0.5-3.56-1.36C29.1,54.66,30.44,54,32,54	C33.56,54,34.9,54.66,35.56,55.64z"/><path fill="#595959" d="M36.841,27.998c-0.406,0-0.817-0.1-1.181-0.307c-2.224-1.268-5.096-1.268-7.32,0	c-0.993,0.567-2.33,0.327-2.986-0.537c-0.654-0.863-0.377-2.023,0.619-2.59c3.66-2.086,8.394-2.086,12.053,0	c0.996,0.567,1.273,1.727,0.619,2.59C38.231,27.701,37.543,27.998,36.841,27.998z"/></svg>